%TF.GenerationSoftware,KiCad,Pcbnew,9.0.1*%
%TF.CreationDate,2025-04-08T16:36:56+08:00*%
%TF.ProjectId,Project2,50726f6a-6563-4743-922e-6b696361645f,rev?*%
%TF.SameCoordinates,Original*%
%TF.FileFunction,Legend,Bot*%
%TF.FilePolarity,Positive*%
%FSLAX46Y46*%
G04 Gerber Fmt 4.6, Leading zero omitted, Abs format (unit mm)*
G04 Created by KiCad (PCBNEW 9.0.1) date 2025-04-08 16:36:56*
%MOMM*%
%LPD*%
G01*
G04 APERTURE LIST*
%ADD10C,0.150000*%
%ADD11C,0.120000*%
G04 APERTURE END LIST*
D10*
X32825238Y-45490057D02*
X32920476Y-45442438D01*
X32920476Y-45442438D02*
X33015714Y-45347200D01*
X33015714Y-45347200D02*
X33158571Y-45204342D01*
X33158571Y-45204342D02*
X33253809Y-45156723D01*
X33253809Y-45156723D02*
X33349047Y-45156723D01*
X33301428Y-45394819D02*
X33396666Y-45347200D01*
X33396666Y-45347200D02*
X33491904Y-45251961D01*
X33491904Y-45251961D02*
X33539523Y-45061485D01*
X33539523Y-45061485D02*
X33539523Y-44728152D01*
X33539523Y-44728152D02*
X33491904Y-44537676D01*
X33491904Y-44537676D02*
X33396666Y-44442438D01*
X33396666Y-44442438D02*
X33301428Y-44394819D01*
X33301428Y-44394819D02*
X33110952Y-44394819D01*
X33110952Y-44394819D02*
X33015714Y-44442438D01*
X33015714Y-44442438D02*
X32920476Y-44537676D01*
X32920476Y-44537676D02*
X32872857Y-44728152D01*
X32872857Y-44728152D02*
X32872857Y-45061485D01*
X32872857Y-45061485D02*
X32920476Y-45251961D01*
X32920476Y-45251961D02*
X33015714Y-45347200D01*
X33015714Y-45347200D02*
X33110952Y-45394819D01*
X33110952Y-45394819D02*
X33301428Y-45394819D01*
X31920476Y-45394819D02*
X32491904Y-45394819D01*
X32206190Y-45394819D02*
X32206190Y-44394819D01*
X32206190Y-44394819D02*
X32301428Y-44537676D01*
X32301428Y-44537676D02*
X32396666Y-44632914D01*
X32396666Y-44632914D02*
X32491904Y-44680533D01*
X39333333Y-44074819D02*
X39333333Y-44789104D01*
X39333333Y-44789104D02*
X39380952Y-44931961D01*
X39380952Y-44931961D02*
X39476190Y-45027200D01*
X39476190Y-45027200D02*
X39619047Y-45074819D01*
X39619047Y-45074819D02*
X39714285Y-45074819D01*
X38333333Y-45074819D02*
X38904761Y-45074819D01*
X38619047Y-45074819D02*
X38619047Y-44074819D01*
X38619047Y-44074819D02*
X38714285Y-44217676D01*
X38714285Y-44217676D02*
X38809523Y-44312914D01*
X38809523Y-44312914D02*
X38904761Y-44360533D01*
X33800714Y-20931009D02*
X33657857Y-20978628D01*
X33657857Y-20978628D02*
X33610238Y-21026247D01*
X33610238Y-21026247D02*
X33562619Y-21121485D01*
X33562619Y-21121485D02*
X33562619Y-21264342D01*
X33562619Y-21264342D02*
X33610238Y-21359580D01*
X33610238Y-21359580D02*
X33657857Y-21407200D01*
X33657857Y-21407200D02*
X33753095Y-21454819D01*
X33753095Y-21454819D02*
X34134047Y-21454819D01*
X34134047Y-21454819D02*
X34134047Y-20454819D01*
X34134047Y-20454819D02*
X33800714Y-20454819D01*
X33800714Y-20454819D02*
X33705476Y-20502438D01*
X33705476Y-20502438D02*
X33657857Y-20550057D01*
X33657857Y-20550057D02*
X33610238Y-20645295D01*
X33610238Y-20645295D02*
X33610238Y-20740533D01*
X33610238Y-20740533D02*
X33657857Y-20835771D01*
X33657857Y-20835771D02*
X33705476Y-20883390D01*
X33705476Y-20883390D02*
X33800714Y-20931009D01*
X33800714Y-20931009D02*
X34134047Y-20931009D01*
X33276904Y-20454819D02*
X32705476Y-20454819D01*
X32991190Y-21454819D02*
X32991190Y-20454819D01*
X31848333Y-21454819D02*
X32419761Y-21454819D01*
X32134047Y-21454819D02*
X32134047Y-20454819D01*
X32134047Y-20454819D02*
X32229285Y-20597676D01*
X32229285Y-20597676D02*
X32324523Y-20692914D01*
X32324523Y-20692914D02*
X32419761Y-20740533D01*
X32356666Y-60584819D02*
X32689999Y-60108628D01*
X32928094Y-60584819D02*
X32928094Y-59584819D01*
X32928094Y-59584819D02*
X32547142Y-59584819D01*
X32547142Y-59584819D02*
X32451904Y-59632438D01*
X32451904Y-59632438D02*
X32404285Y-59680057D01*
X32404285Y-59680057D02*
X32356666Y-59775295D01*
X32356666Y-59775295D02*
X32356666Y-59918152D01*
X32356666Y-59918152D02*
X32404285Y-60013390D01*
X32404285Y-60013390D02*
X32451904Y-60061009D01*
X32451904Y-60061009D02*
X32547142Y-60108628D01*
X32547142Y-60108628D02*
X32928094Y-60108628D01*
X31404285Y-60584819D02*
X31975713Y-60584819D01*
X31689999Y-60584819D02*
X31689999Y-59584819D01*
X31689999Y-59584819D02*
X31785237Y-59727676D01*
X31785237Y-59727676D02*
X31880475Y-59822914D01*
X31880475Y-59822914D02*
X31975713Y-59870533D01*
D11*
%TO.C,Q1*%
X34530000Y-50350000D02*
X30930000Y-50350000D01*
X30891522Y-50338478D02*
G75*
G02*
X32730000Y-45899999I1838478J1838478D01*
G01*
X32730000Y-45900000D02*
G75*
G02*
X34568478Y-50338478I0J-2600000D01*
G01*
%TO.C,J1*%
X37620000Y-48270000D02*
X37620000Y-50920000D01*
X40380000Y-45620000D02*
X39000000Y-45620000D01*
X40380000Y-47000000D02*
X40380000Y-45620000D01*
X40380000Y-48270000D02*
X37620000Y-48270000D01*
X40380000Y-48270000D02*
X40380000Y-50920000D01*
X40380000Y-50920000D02*
X37620000Y-50920000D01*
%TO.C,BT1*%
X22235000Y-27040000D02*
X22235000Y-29500000D01*
X22235000Y-35500000D02*
X22235000Y-36130000D01*
X22235000Y-36130000D02*
X23675000Y-40080000D01*
X24315000Y-24960000D02*
X22235000Y-27040000D01*
X24315000Y-24960000D02*
X27815000Y-24960000D01*
X38215000Y-24960000D02*
X41715000Y-24960000D01*
X41715000Y-24960000D02*
X43795000Y-27040000D01*
X43795000Y-27040000D02*
X43795000Y-29500000D01*
X43795000Y-35500000D02*
X43795000Y-36130000D01*
X43795000Y-36130000D02*
X42355000Y-40080000D01*
X27015000Y-41050000D02*
G75*
G02*
X23689757Y-40088169I-1310000J1700000D01*
G01*
X42355000Y-40080000D02*
G75*
G02*
X39018354Y-41066530I-2030000J730001D01*
G01*
%TO.C,R1*%
X28920000Y-61130000D02*
X28920000Y-61460000D01*
X28920000Y-63870000D02*
X28920000Y-63540000D01*
X35460000Y-61130000D02*
X28920000Y-61130000D01*
X35460000Y-61460000D02*
X35460000Y-61130000D01*
X35460000Y-63540000D02*
X35460000Y-63870000D01*
X35460000Y-63870000D02*
X28920000Y-63870000D01*
%TD*%
M02*
