%TF.GenerationSoftware,KiCad,Pcbnew,9.0.1*%
%TF.CreationDate,2025-04-08T16:36:56+08:00*%
%TF.ProjectId,Project2,50726f6a-6563-4743-922e-6b696361645f,rev?*%
%TF.SameCoordinates,Original*%
%TF.FileFunction,Profile,NP*%
%FSLAX46Y46*%
G04 Gerber Fmt 4.6, Leading zero omitted, Abs format (unit mm)*
G04 Created by KiCad (PCBNEW 9.0.1) date 2025-04-08 16:36:56*
%MOMM*%
%LPD*%
G01*
G04 APERTURE LIST*
%TA.AperFunction,Profile*%
%ADD10C,0.050000*%
%TD*%
G04 APERTURE END LIST*
D10*
X40479999Y-19000017D02*
X52750000Y-18989796D01*
X52750000Y-24500000D01*
X49750000Y-24500000D01*
X49750000Y-28515058D01*
X59000000Y-28236486D01*
X59000000Y-31500000D01*
X62000000Y-31500000D01*
X62000000Y-43500000D01*
X59000000Y-43500000D01*
X59000000Y-46500000D01*
X50000000Y-46500000D01*
X50000000Y-49500000D01*
X46500000Y-49500000D01*
X46500000Y-55750000D01*
X43500000Y-55750000D01*
X43500000Y-62500000D01*
X46500000Y-62500000D01*
X46500000Y-65500000D01*
X49506757Y-65500000D01*
X49756194Y-83958367D01*
X52750000Y-83994042D01*
X52750000Y-87250000D01*
X12750000Y-87250000D01*
X12750000Y-84250000D01*
X16000000Y-84250000D01*
X16000000Y-65500000D01*
X19000000Y-65500000D01*
X19000000Y-62500000D01*
X22250000Y-62500000D01*
X22250000Y-56000000D01*
X19000000Y-56000000D01*
X19000000Y-49750000D01*
X15750000Y-49750000D01*
X15750000Y-24750000D01*
X12500000Y-24750000D01*
X12500000Y-19000000D01*
X28000000Y-19000000D01*
X28000000Y-12250000D01*
X40500000Y-12250000D01*
X40479999Y-19000017D01*
X56000000Y-40250000D02*
X50250000Y-40250000D01*
X50250000Y-34250000D01*
X56000000Y-34250000D01*
X56000000Y-40250000D01*
M02*
