%TF.GenerationSoftware,KiCad,Pcbnew,9.0.1*%
%TF.CreationDate,2025-04-08T16:36:56+08:00*%
%TF.ProjectId,Project2,50726f6a-6563-4743-922e-6b696361645f,rev?*%
%TF.SameCoordinates,Original*%
%TF.FileFunction,Legend,Top*%
%TF.FilePolarity,Positive*%
%FSLAX46Y46*%
G04 Gerber Fmt 4.6, Leading zero omitted, Abs format (unit mm)*
G04 Created by KiCad (PCBNEW 9.0.1) date 2025-04-08 16:36:56*
%MOMM*%
%LPD*%
G01*
G04 APERTURE LIST*
%ADD10C,0.150000*%
%ADD11C,0.120000*%
G04 APERTURE END LIST*
D10*
X30916667Y-66407200D02*
X31059524Y-66454819D01*
X31059524Y-66454819D02*
X31297619Y-66454819D01*
X31297619Y-66454819D02*
X31392857Y-66407200D01*
X31392857Y-66407200D02*
X31440476Y-66359580D01*
X31440476Y-66359580D02*
X31488095Y-66264342D01*
X31488095Y-66264342D02*
X31488095Y-66169104D01*
X31488095Y-66169104D02*
X31440476Y-66073866D01*
X31440476Y-66073866D02*
X31392857Y-66026247D01*
X31392857Y-66026247D02*
X31297619Y-65978628D01*
X31297619Y-65978628D02*
X31107143Y-65931009D01*
X31107143Y-65931009D02*
X31011905Y-65883390D01*
X31011905Y-65883390D02*
X30964286Y-65835771D01*
X30964286Y-65835771D02*
X30916667Y-65740533D01*
X30916667Y-65740533D02*
X30916667Y-65645295D01*
X30916667Y-65645295D02*
X30964286Y-65550057D01*
X30964286Y-65550057D02*
X31011905Y-65502438D01*
X31011905Y-65502438D02*
X31107143Y-65454819D01*
X31107143Y-65454819D02*
X31345238Y-65454819D01*
X31345238Y-65454819D02*
X31488095Y-65502438D01*
X31821429Y-65454819D02*
X32059524Y-66454819D01*
X32059524Y-66454819D02*
X32250000Y-65740533D01*
X32250000Y-65740533D02*
X32440476Y-66454819D01*
X32440476Y-66454819D02*
X32678572Y-65454819D01*
X33583333Y-66454819D02*
X33011905Y-66454819D01*
X33297619Y-66454819D02*
X33297619Y-65454819D01*
X33297619Y-65454819D02*
X33202381Y-65597676D01*
X33202381Y-65597676D02*
X33107143Y-65692914D01*
X33107143Y-65692914D02*
X33011905Y-65740533D01*
X26761905Y-56454819D02*
X26761905Y-55454819D01*
X26761905Y-55454819D02*
X27000000Y-55454819D01*
X27000000Y-55454819D02*
X27142857Y-55502438D01*
X27142857Y-55502438D02*
X27238095Y-55597676D01*
X27238095Y-55597676D02*
X27285714Y-55692914D01*
X27285714Y-55692914D02*
X27333333Y-55883390D01*
X27333333Y-55883390D02*
X27333333Y-56026247D01*
X27333333Y-56026247D02*
X27285714Y-56216723D01*
X27285714Y-56216723D02*
X27238095Y-56311961D01*
X27238095Y-56311961D02*
X27142857Y-56407200D01*
X27142857Y-56407200D02*
X27000000Y-56454819D01*
X27000000Y-56454819D02*
X26761905Y-56454819D01*
X28285714Y-56454819D02*
X27714286Y-56454819D01*
X28000000Y-56454819D02*
X28000000Y-55454819D01*
X28000000Y-55454819D02*
X27904762Y-55597676D01*
X27904762Y-55597676D02*
X27809524Y-55692914D01*
X27809524Y-55692914D02*
X27714286Y-55740533D01*
X31304761Y-75404819D02*
X30971428Y-74928628D01*
X30733333Y-75404819D02*
X30733333Y-74404819D01*
X30733333Y-74404819D02*
X31114285Y-74404819D01*
X31114285Y-74404819D02*
X31209523Y-74452438D01*
X31209523Y-74452438D02*
X31257142Y-74500057D01*
X31257142Y-74500057D02*
X31304761Y-74595295D01*
X31304761Y-74595295D02*
X31304761Y-74738152D01*
X31304761Y-74738152D02*
X31257142Y-74833390D01*
X31257142Y-74833390D02*
X31209523Y-74881009D01*
X31209523Y-74881009D02*
X31114285Y-74928628D01*
X31114285Y-74928628D02*
X30733333Y-74928628D01*
X31590476Y-74404819D02*
X31923809Y-75404819D01*
X31923809Y-75404819D02*
X32257142Y-74404819D01*
X33114285Y-75404819D02*
X32542857Y-75404819D01*
X32828571Y-75404819D02*
X32828571Y-74404819D01*
X32828571Y-74404819D02*
X32733333Y-74547676D01*
X32733333Y-74547676D02*
X32638095Y-74642914D01*
X32638095Y-74642914D02*
X32542857Y-74690533D01*
D11*
%TO.C,SW1*%
X28750000Y-69500000D02*
X28750000Y-71000000D01*
X30000000Y-73500000D02*
X34500000Y-73500000D01*
X34500000Y-67000000D02*
X30000000Y-67000000D01*
X35750000Y-71000000D02*
X35750000Y-69500000D01*
%TO.C,D1*%
X29670000Y-54455000D02*
X29670000Y-57545000D01*
X29670000Y-54455170D02*
G75*
G02*
X35220000Y-55999952I2560000J-1544830D01*
G01*
X35220000Y-56000048D02*
G75*
G02*
X29670000Y-57544830I-2990000J48D01*
G01*
X34730000Y-56000000D02*
G75*
G02*
X29730000Y-56000000I-2500000J0D01*
G01*
X29730000Y-56000000D02*
G75*
G02*
X34730000Y-56000000I2500000J0D01*
G01*
%TO.C,RV1*%
X28290000Y-76090000D02*
X28290000Y-82910000D01*
X28290000Y-76090000D02*
X31578000Y-76090000D01*
X28290000Y-82910000D02*
X31578000Y-82910000D01*
X32342000Y-76090000D02*
X35510000Y-76090000D01*
X32342000Y-82910000D02*
X35510000Y-82910000D01*
X35510000Y-76090000D02*
X35510000Y-82910000D01*
%TD*%
M02*
